bicep_curl
version=1
nRows=101
nColumns=3
inDegrees=yes

# SIMM Motion File Header:
name bicep_curl
datacolumns 3
datarows 101
otherdata 1
range 0.0000 1.0000
endheader
time	/jointset/r_shoulder/r_shoulder_elev/value	/jointset/r_elbow/r_elbow_flex/value
0.0000	0.0000	20.0000
0.0100	0.0000	23.9600
0.0200	0.0000	27.8400
0.0300	0.0000	31.6400
0.0400	0.0000	35.3600
0.0500	0.0000	39.0000
0.0600	0.0000	42.5600
0.0700	0.0000	46.0400
0.0800	0.0000	49.4400
0.0900	0.0000	52.7600
0.1000	0.0000	56.0000
0.1100	0.0000	59.1600
0.1200	0.0000	62.2400
0.1300	0.0000	65.2400
0.1400	0.0000	68.1600
0.1500	0.0000	71.0000
0.1600	0.0000	73.7600
0.1700	0.0000	76.4400
0.1800	0.0000	79.0400
0.1900	0.0000	81.5600
0.2000	0.0000	84.0000
0.2100	0.0000	86.3600
0.2200	0.0000	88.6400
0.2300	0.0000	90.8400
0.2400	0.0000	92.9600
0.2500	0.0000	95.0000
0.2600	0.0000	96.9600
0.2700	0.0000	98.8400
0.2800	0.0000	100.6400
0.2900	0.0000	102.3600
0.3000	0.0000	104.0000
0.3100	0.0000	105.5600
0.3200	0.0000	107.0400
0.3300	0.0000	108.4400
0.3400	0.0000	109.7600
0.3500	0.0000	111.0000
0.3600	0.0000	112.1600
0.3700	0.0000	113.2400
0.3800	0.0000	114.2400
0.3900	0.0000	115.1600
0.4000	0.0000	116.0000
0.4100	0.0000	116.7600
0.4200	0.0000	117.4400
0.4300	0.0000	118.0400
0.4400	0.0000	118.5600
0.4500	0.0000	119.0000
0.4600	0.0000	119.3600
0.4700	0.0000	119.6400
0.4800	0.0000	119.8400
0.4900	0.0000	119.9600
0.5000	0.0000	120.0000
0.5100	0.0000	119.9600
0.5200	0.0000	119.8400
0.5300	0.0000	119.6400
0.5400	0.0000	119.3600
0.5500	0.0000	119.0000
0.5600	0.0000	118.5600
0.5700	0.0000	118.0400
0.5800	0.0000	117.4400
0.5900	0.0000	116.7600
0.6000	0.0000	116.0000
0.6100	0.0000	115.1600
0.6200	0.0000	114.2400
0.6300	0.0000	113.2400
0.6400	0.0000	112.1600
0.6500	0.0000	111.0000
0.6600	0.0000	109.7600
0.6700	0.0000	108.4400
0.6800	0.0000	107.0400
0.6900	0.0000	105.5600
0.7000	0.0000	104.0000
0.7100	0.0000	102.3600
0.7200	0.0000	100.6400
0.7300	0.0000	98.8400
0.7400	0.0000	96.9600
0.7500	0.0000	95.0000
0.7600	0.0000	92.9600
0.7700	0.0000	90.8400
0.7800	0.0000	88.6400
0.7900	0.0000	86.3600
0.8000	0.0000	84.0000
0.8100	0.0000	81.5600
0.8200	0.0000	79.0400
0.8300	0.0000	76.4400
0.8400	0.0000	73.7600
0.8500	0.0000	71.0000
0.8600	0.0000	68.1600
0.8700	0.0000	65.2400
0.8800	0.0000	62.2400
0.8900	0.0000	59.1600
0.9000	0.0000	56.0000
0.9100	0.0000	52.7600
0.9200	0.0000	49.4400
0.9300	0.0000	46.0400
0.9400	0.0000	42.5600
0.9500	0.0000	39.0000
0.9600	0.0000	35.3600
0.9700	0.0000	31.6400
0.9800	0.0000	27.8400
0.9900	0.0000	23.9600
1.0000	0.0000	20.0000
